PathFileType	4	(X/Y/Z)	Walk1.trc
DataRate	CameraRate	NumFrames	NumMarkers	Units	OrigDataRate	OrigDataStartFrame	OrigNumFrames
200.000000	200.000000	7	69	mm	200.000000	285	577
Frame#	Times		LFHD		RFHD		RBHD		C7		CLAV		STRN		RBack		LASI		RASI		RACR1		RUA1		RFA1		RWRU		LACR1		LUA1		LElbow		LWRU		RTH3		RTH2		RTH4		RLFC		RMT5		LTH3		LTH2		LTH4		LLFC		LTB1		LTB3		LTB2		LTB4		LLMAL		LMMAL		LMT1		LMT5		LToe		LowerBodyModelVer		PELOrigin		LFA1		LTH1		LBHD		RElbow		RPSI		LCAR		LPSI		RCAL		LHJC		MidPelvis		OPelvis		RHJC		SACR		XPelvis		YPelvis		ZPelvis		RTH1		RMT1		RElbowM		RToe		RLMAL		RCAR		LWRR		RTB2		RTB1		RWRR		RTB3		RTB4		RMMAL		T10		LCAL		LElbowM
			X1	Y1	Z1	X2	Y2	Z2	X3	Y3	Z3	X4	Y4	Z4	X5	Y5	Z5	X6	Y6	Z6	X7	Y7	Z7	X8	Y8	Z8	X9	Y9	Z9	X10	Y10	Z10	X11	Y11	Z11	X12	Y12	Z12	X13	Y13	Z13	X14	Y14	Z14	X15	Y15	Z15	X16	Y16	Z16	X17	Y17	Z17	X18	Y18	Z18	X19	Y19	Z19	X20	Y20	Z20	X21	Y21	Z21	X22	Y22	Z22	X23	Y23	Z23	X24	Y24	Z24	X25	Y25	Z25	X26	Y26	Z26	X27	Y27	Z27	X28	Y28	Z28	X29	Y29	Z29	X30	Y30	Z30	X31	Y31	Z31	X32	Y32	Z32	X33	Y33	Z33	X34	Y34	Z34	X35	Y35	Z35	X36	Y36	Z36	X37	Y37	Z37	X38	Y38	Z38	X39	Y39	Z39	X40	Y40	Z40	X41	Y41	Z41	X42	Y42	Z42	X43	Y43	Z43	X44	Y44	Z44	X45	Y45	Z45	X46	Y46	Z46	X47	Y47	Z47	X48	Y48	Z48	X49	Y49	Z49	X50	Y50	Z50	X51	Y51	Z51	X52	Y52	Z52	X53	Y53	Z53	X54	Y54	Z54	X55	Y55	Z55	X56	Y56	Z56	X57	Y57	Z57	X58	Y58	Z58	X59	Y59	Z59	X60	Y60	Z60	X61	Y61	Z61	X62	Y62	Z62	X63	Y63	Z63	X64	Y64	Z64	X65	Y65	Z65	X66	Y66	Z66	X67	Y67	Z67	X68	Y68	Z68	X69	Y69	Z69

285	1.425	-179.98	1554.5	-46.72	-179.84	1553.7	50.853	-349.16	1575.4	59.863	-411.57	1414.7	1.931	-255.89	1331.1	-2.8229	-197.61	1215.6	4.0833	-476.2	1316.6	96.719	-250.9	960.45	-166.47	-266.15	954.15	179.47	-335.92	1376	173.26	-380.31	1237	263.63	-379.87	942.81	309.33	-405.3	838.6	339.31	-325.01	1352	-184	-353.54	1204.1	-255.45	-431.43	1069.4	-282.48	-437.24	825.28	-338.21	-370.78	539.02	214.03	-305.61	621.22	212.18	-364.06	625.62	226.98	-379.49	451.25	209.49	-602.98	54.79	179.17	-261.14	560.16	-164.68	-217.87	656.4	-167.68	-270.17	642.77	-194.66	-267.27	486.35	-145.77	-236.64	333.99	-41.126	-255.3	163.71	-49.802	-244.8	252.54	-108.55	-248.83	249.52	-47.33	-298.71	68.673	-114.09	-292.69	72.226	-28.256	-167.29	34.659	-30.004	-182.39	26.572	-120.44	-123.25	30.198	-30.531	9	2014	4	-258.53	957.3	6.4983	-397.78	939.22	-310.93	-276.42	723.08	-222.59	-332.21	1561.5	-74.736	-432.72	1076.9	301.2	-513.65	978.93	34.423	-402.68	775.24	-338.26	-491.91	983.25	-99.439	-714.09	185.41	133.75	-343.49	856.69	-116.97	-380.65	969.2	-13.005	-258.53	957.3	6.4983	-353.87	852.41	118.27	-502.78	981.09	-32.508	-178.95	949.76	9.8701	-251.05	1036.9	8.2787	-262.05	955.84	86.407	-346.51	706.87	236.83	-586.52	56.455	95.162	-472.79	1067	218.38	-554.49	33.212	105.03	-654.29	172.13	180.65	-372.06	780.31	319.18	-386.41	819.4	-284.31	-478.58	294.51	192.11	-397.67	328.89	133.34	-372.2	836.97	273.47	-548.47	224.74	110.33	-473.07	276.82	121.84	-629.66	168.66	97.94	-476.95	1084.5	-7.3223	-356.02	29.412	-75.052	-439.96	1036.9	-180.12
286	1.43	-175.68	1555.1	-47.539	-175.6	1554.2	50.037	-344.92	1575.9	58.934	-407.33	1415.3	0.72197	-251.71	1331.6	-3.6408	-193.44	1216.4	3.0853	-472.26	1317.2	95.321	-246.74	960.96	-167.05	-261.96	955.09	178.73	-332.34	1376.8	172.41	-377.08	1237.8	262.66	-377.18	943.33	308.09	-403.05	839.15	337.9	-320.66	1352.5	-184.96	-348.62	1204.6	-256.61	-425.81	1069.5	-283.86	-428.94	825.32	-339.41	-362.86	539.63	214.53	-298.77	622.72	212.41	-357.24	626.31	227.08	-370.75	452.08	210.11	-595.43	56.914	179.72	-260.31	559.82	-165.15	-216.02	655.62	-168.33	-268.63	642.53	-195	-266.2	486.22	-146.02	-236.22	333.89	-41.197	-255.09	163.6	-49.841	-244.36	252.37	-108.57	-248.49	249.4	-47.371	-298.7	68.66	-114.02	-292.68	72.148	-28.212	-167.3	34.641	-30.003	-182.42	26.587	-120.42	-123.14	30.169	-30.619	9	2014	4	-254.35	958.03	5.84	-390.8	939.66	-312.08	-274.16	722.94	-222.85	-327.9	1562	-75.644	-429.61	1077.7	300.07	-509.55	979.32	33.992	-393.78	775.73	-339.36	-487.72	983.79	-99.906	-705.89	187.43	132.21	-339.2	857.23	-117.43	-376.49	969.79	-13.558	-254.35	958.03	5.84	-349.55	853.25	117.7	-498.63	981.55	-32.957	-174.77	950.56	9.2145	-246.95	1037.7	7.5169	-257.87	956.67	85.751	-340.66	707.83	237	-578.09	57.697	95.94	-469.54	1068	217.16	-546.33	34.165	106.55	-646.51	174.28	179.75	-370.23	780.61	317.47	-378.24	820.06	-285.4	-470.46	295.91	192.25	-389.1	329.95	133.98	-369.89	837.56	272.04	-539.95	226.17	110.17	-464.53	278.06	122.07	-621.18	170.29	97.347	-472.71	1085.1	-8.0894	-356.05	29.414	-74.98	-434.81	1037.1	-181.57
287	1.435	-171.39	1555.6	-48.324	-171.37	1554.8	49.255	-340.69	1576.4	58.033	-403.09	1415.8	-0.43329	-247.55	1332.2	-4.4227	-189.29	1217.2	2.1356	-468.32	1317.7	93.973	-242.62	961.39	-167.61	-257.82	955.97	178.03	-328.76	1377.5	171.61	-373.85	1238.6	261.72	-374.46	943.82	306.9	-400.77	839.68	336.53	-316.31	1352.9	-185.9	-343.72	1205.1	-257.73	-420.18	1069.6	-285.24	-420.6	825.36	-340.6	-355	540.33	215.01	-291.96	624.29	212.63	-350.46	627.07	227.12	-362.08	453.02	210.71	-587.39	58.883	180.24	-259.45	559.5	-165.58	-214.2	654.87	-168.92	-267.11	642.3	-195.28	-265.09	486.1	-146.25	-235.83	333.8	-41.236	-254.91	163.5	-49.855	-243.93	252.2	-108.55	-248.18	249.29	-47.385	-298.68	68.65	-113.96	-292.68	72.077	-28.173	-167.29	34.621	-30.001	-182.45	26.601	-120.4	-123.02	30.135	-30.706	9	2014	4	-250.22	958.68	5.2091	-383.79	940.1	-313.23	-271.95	722.8	-223.06	-323.59	1562.5	-76.52	-426.51	1078.4	298.96	-505.46	979.68	33.567	-384.83	776.24	-340.46	-483.55	984.3	-100.36	-697.41	189.04	130.58	-334.98	857.71	-117.88	-372.36	970.34	-14.094	-250.22	958.68	5.2091	-345.31	854.03	117.16	-494.51	981.99	-33.398	-170.63	951.27	8.5912	-242.87	1038.3	6.7816	-253.73	957.43	85.122	-334.84	708.85	237.17	-569.15	58.829	96.679	-466.29	1068.8	215.97	-537.6	35.124	108.01	-638.43	176.14	178.79	-368.34	780.9	315.81	-370.03	820.72	-286.47	-462.22	297.29	192.38	-380.43	331.04	134.62	-367.51	838.13	270.66	-531.19	227.44	109.97	-455.81	279.24	122.29	-612.37	171.65	96.696	-468.5	1085.6	-8.8426	-356.09	29.419	-74.907	-429.68	1037.2	-183.03
288	1.44	-167.1	1556.1	-49.075	-167.14	1555.3	48.507	-336.47	1576.9	57.159	-398.86	1416.4	-1.5319	-243.42	1332.7	-5.1702	-185.16	1217.9	1.24	-464.39	1318.2	92.677	-238.53	961.75	-168.16	-253.73	956.78	177.37	-325.17	1378.1	170.86	-370.63	1239.3	260.82	-371.73	944.29	305.76	-398.44	840.17	335.19	-311.96	1353.4	-186.8	-338.81	1205.5	-258.8	-414.54	1069.6	-286.6	-412.21	825.42	-341.79	-347.2	541.14	215.48	-285.19	625.92	212.83	-343.71	627.89	227.13	-353.49	454.05	211.28	-578.85	60.671	180.71	-258.54	559.19	-165.97	-212.4	654.17	-169.45	-265.58	642.09	-195.51	-263.96	486	-146.45	-235.47	333.72	-41.25	-254.75	163.4	-49.845	-243.5	252.05	-108.52	-247.9	249.19	-47.377	-298.66	68.644	-113.89	-292.69	72.017	-28.143	-167.29	34.599	-30	-182.47	26.615	-120.39	-122.91	30.096	-30.792	9	2014	4	-246.13	959.26	4.607	-376.76	940.54	-314.36	-269.77	722.67	-223.22	-319.29	1563	-77.367	-423.44	1079	297.89	-501.4	980.03	33.15	-375.82	776.8	-341.58	-479.41	984.78	-100.81	-688.66	190.24	128.89	-330.81	858.13	-118.31	-368.27	970.83	-14.611	-246.13	959.26	4.607	-341.14	854.75	116.66	-490.4	982.4	-33.829	-166.54	951.89	8.0024	-238.81	1038.9	6.0753	-249.64	958.11	84.521	-329.05	709.94	237.34	-559.7	59.842	97.358	-463.04	1069.6	214.82	-528.32	36.072	109.38	-630.05	177.7	177.78	-366.38	781.18	314.22	-361.79	821.39	-287.52	-453.86	298.62	192.5	-371.65	332.17	135.25	-365.05	838.68	269.31	-522.19	228.55	109.74	-446.92	280.36	122.49	-603.25	172.76	95.997	-464.32	1086.1	-9.583	-356.13	29.427	-74.834	-424.55	1037.2	-184.48
289	1.445	-162.83	1556.6	-49.793	-162.92	1555.8	47.791	-332.25	1577.4	56.311	-394.65	1416.9	-2.572	-239.3	1333.2	-5.8848	-181.05	1218.5	0.40429	-460.46	1318.6	91.439	-234.46	962.04	-168.69	-249.7	957.51	176.76	-321.57	1378.7	170.14	-367.41	1240	259.96	-368.97	944.72	304.66	-396.08	840.64	333.9	-307.61	1353.8	-187.67	-333.91	1205.9	-259.83	-408.89	1069.7	-287.94	-403.79	825.5	-342.97	-339.45	542.05	215.92	-278.46	627.62	213.04	-337.01	628.8	227.12	-344.98	455.16	211.8	-569.81	62.26	181.1	-257.54	558.92	-166.31	-210.59	653.53	-169.91	-264.03	641.92	-195.69	-262.81	485.91	-146.63	-235.13	333.65	-41.244	-254.62	163.32	-49.815	-243.07	251.9	-108.45	-247.65	249.11	-47.351	-298.64	68.642	-113.83	-292.7	71.968	-28.122	-167.29	34.577	-29.999	-182.5	26.626	-120.38	-122.8	30.054	-30.878	9	2014	4	-242.08	959.78	4.0351	-369.71	940.98	-315.48	-267.61	722.56	-223.33	-314.99	1563.5	-78.184	-420.38	1079.6	296.85	-497.34	980.36	32.74	-366.76	777.41	-342.71	-475.29	985.23	-101.24	-679.63	191.03	127.18	-326.7	858.48	-118.73	-364.2	971.28	-15.107	-242.08	959.78	4.0351	-337.06	855.41	116.18	-486.31	982.79	-34.25	-162.49	952.43	7.4502	-234.79	1039.4	5.4005	-245.61	958.73	83.951	-323.27	711.1	237.5	-549.78	60.729	97.96	-459.78	1070.4	213.69	-518.5	36.995	110.63	-621.38	178.96	176.73	-364.35	781.45	312.69	-353.53	822.07	-288.55	-445.38	299.89	192.61	-362.77	333.33	135.88	-362.53	839.21	268.01	-512.96	229.51	109.47	-437.86	281.42	122.68	-593.83	173.6	95.256	-460.16	1086.6	-10.312	-356.17	29.439	-74.764	-419.43	1037.2	-185.92
290	1.45	-158.55	1557	-50.479	-158.72	1556.2	47.108	-328.05	1577.8	55.489	-390.46	1417.4	-3.5528	-235.2	1333.6	-6.5682	-176.96	1219.1	-0.36584	-456.53	1319.1	90.26	-230.41	962.26	-169.21	-245.72	958.17	176.2	-317.96	1379.3	169.46	-364.19	1240.6	259.15	-366.2	945.14	303.61	-393.68	841.08	332.64	-303.25	1354.1	-188.51	-329.01	1206.2	-260.81	-403.21	1069.7	-289.26	-395.34	825.6	-344.15	-331.76	543.05	216.34	-271.77	629.38	213.24	-330.33	629.79	227.1	-336.55	456.34	212.27	-560.29	63.634	181.42	-256.43	558.7	-166.6	-208.76	652.96	-170.32	-262.43	641.78	-195.8	-261.64	485.83	-146.8	-234.82	333.59	-41.226	-254.51	163.25	-49.767	-242.65	251.77	-108.38	-247.43	249.04	-47.312	-298.62	68.642	-113.78	-292.72	71.93	-28.111	-167.29	34.555	-29.998	-182.52	26.637	-120.37	-122.69	30.01	-30.963	9	2014	4	-238.07	960.22	3.4951	-362.64	941.43	-316.57	-265.45	722.48	-223.41	-310.7	1563.9	-78.974	-417.34	1080.2	295.83	-493.29	980.67	32.338	-357.66	778.05	-343.85	-471.18	985.64	-101.66	-670.33	191.41	125.46	-322.64	858.77	-119.14	-360.15	971.69	-15.582	-238.07	960.22	3.4951	-333.05	856	115.74	-482.24	983.16	-34.66	-158.48	952.88	6.9362	-230.78	1039.9	4.7594	-241.61	959.27	83.411	-317.53	712.32	237.66	-539.41	61.487	98.475	-456.51	1071	212.59	-508.17	37.88	111.74	-612.39	179.89	175.67	-362.25	781.72	311.24	-345.25	822.75	-289.55	-436.76	301.09	192.7	-353.78	334.5	136.5	-359.95	839.71	266.75	-503.5	230.3	109.19	-428.64	282.4	122.84	-584.12	174.2	94.482	-456.02	1087.1	-11.03	-356.22	29.454	-74.697	-414.32	1037.2	-187.34
291	1.455	-154.28	1557.5	-51.133	-154.52	1556.6	46.455	-323.85	1578.3	54.693	-386.29	1417.8	-4.4749	-231.12	1334.1	-7.2218	-172.88	1219.6	-1.0654	-452.61	1319.5	89.14	-226.39	962.41	-169.72	-241.8	958.77	175.7	-314.33	1379.8	168.81	-360.96	1241.2	258.38	-363.41	945.53	302.6	-391.25	841.5	331.43	-298.89	1354.5	-189.31	-324.1	1206.5	-261.73	-397.53	1069.7	-290.56	-386.86	825.73	-345.31	-324.13	544.14	216.73	-265.11	631.19	213.44	-323.69	630.86	227.07	-328.19	457.58	212.7	-550.28	64.782	181.65	-255.2	558.53	-166.83	-206.88	652.48	-170.66	-260.76	641.69	-195.87	-260.48	485.77	-146.96	-234.54	333.55	-41.201	-254.43	163.19	-49.707	-242.25	251.65	-108.29	-247.24	248.98	-47.263	-298.6	68.644	-113.72	-292.75	71.904	-28.112	-167.29	34.533	-29.999	-182.55	26.646	-120.36	-122.59	29.965	-31.048	9	2014	4	-234.1	960.59	2.9881	-355.54	941.89	-317.63	-263.29	722.42	-223.46	-306.41	1564.4	-79.737	-414.31	1080.8	294.85	-489.24	980.97	31.944	-348.53	778.75	-344.99	-467.1	986.03	-102.06	-660.75	191.39	123.78	-318.65	859	-119.55	-356.13	972.04	-16.036	-234.1	960.59	2.9881	-329.13	856.52	115.34	-478.17	983.5	-35.06	-154.51	953.25	6.4619	-226.8	1040.2	4.1539	-237.66	959.75	82.904	-311.8	713.61	237.81	-528.59	62.113	98.895	-453.23	1071.7	211.5	-497.35	38.715	112.69	-603.1	180.5	174.6	-360.08	781.98	309.84	-336.96	823.45	-290.52	-428	302.22	192.78	-344.68	335.69	137.1	-357.33	840.19	265.54	-493.82	230.94	108.88	-419.25	283.32	122.99	-574.12	174.54	93.683	-451.91	1087.6	-11.738	-356.26	29.472	-74.634	-409.2	1037.2	-188.75
